<?xml version="1.0" encoding="UTF-8"?>
<svg id="Layer_1" data-name="Layer 1" xmlns="http://www.w3.org/2000/svg" version="1.1" viewBox="0 0 128 128">
  <defs>
    <style>
      .cls-1 {
        fill: #478cbf;
      }

      .cls-1, .cls-2, .cls-3 {
        stroke-width: 0px;
      }

      .cls-2 {
        fill: #414042;
      }

      .cls-4 {
        fill: #2c2e85;
        stroke: #212532;
        stroke-width: 4px;
      }

      .cls-3 {
        fill: #fff;
      }
    </style>
  </defs>
  <rect class="cls-4" x="2" y="2" width="124" height="124" rx="14" ry="14"/>
  <g>
    <path class="cls-3" d="M22.9,80.3v3.3c27.4,23.8,54.8,23.8,82.2,0v-3.3H22.9Z"/>
    <path class="cls-1" d="M22.9,80.3l15.4,1.4c.8,0,1.3.5,1.5,1.4l.4,6.8,13.3,1,.8-6.2c0-.7.6-1.2,1.5-1.5h16.4c.9.3,1.4.8,1.5,1.5l.8,6.2,13.3-1,.4-6.8c.2-.9.7-1.3,1.5-1.4l15.4-1.4v-24.8c2-2.6,3.9-5.4,5.7-8.2-2.4-4-5.2-7.6-8.4-10.9-2.9,1.3-5.7,2.9-8.3,4.7-2.7-2.5-5.7-4.6-8.9-6.5.5-3.4.7-6.9.8-10.3-4-1.9-8.1-3.3-12.4-4.2-1.8,2.9-3.3,5.9-4.6,9-3.3-.5-6.6-.5-9.9,0-1.3-3.1-2.9-6.1-4.6-9-4.3.9-8.5,2.4-12.4,4.2,0,3.4.3,6.9.8,10.3-3.2,1.8-6.2,4-8.9,6.5-2.6-1.8-5.4-3.4-8.3-4.7-3.2,3.3-6,6.9-8.4,10.9,1.8,2.8,3.6,5.6,5.7,8.2v24.8h-.1ZM22.9,83.6v3.9c0,27.9,82.1,27.9,82.2,0v-3.9l-13.5,1.2-.5,7c0,.7-.6,1.1-1.4,1.3l-16.4,1.1c-.8,0-1.3-.4-1.6-1.1l-1-6.6h-13.3l-1,6.6c-.3.7-.8,1.1-1.6,1.1l-16.4-1.1c-.8-.2-1.3-.6-1.4-1.3l-.5-7-13.5-1.2h-.1Z"/>
    <path class="cls-3" d="M61.1,72.9c0,3.4,5.9,3.4,5.9,0v-8.7c0-3.4-5.9-3.4-5.9,0v8.7Z"/>
    <circle class="cls-3" cx="85.5" cy="65.4" r="9.1"/>
    <circle class="cls-3" cx="42.5" cy="65.4" r="9.1"/>
  </g>
  <g>
    <circle class="cls-2" cx="43.3" cy="66.1" r="6.1"/>
    <circle class="cls-2" cx="84.7" cy="66.1" r="6.1"/>
  </g>
</svg>